<svg id="Layer_1" data-name="Layer 1" xmlns="http://www.w3.org/2000/svg" viewBox="0 0 290.19 74.64"><defs><style>.cls-1{fill:#bb1c29;}.cls-2{fill:#e12434;}.cls-3{fill:#960f1b;}.cls-4{fill:#fff;}.cls-5{fill:#a30000;}.cls-6{fill:#c00;}.cls-7{fill:#820000;}</style></defs><title>Logotype_RH_OpenShiftOnline_wLogo_RGB_White</title><path class="cls-1" d="M127.08,86L114,90.72a37.91,37.91,0,0,0,1,6.18l12.4-4.51a24.31,24.31,0,0,1-.38-6.42" transform="translate(-103.48 -52.5)"/><path class="cls-1" d="M184.76,71.54a37.27,37.27,0,0,0-3.18-5.41l-13,4.75a24.26,24.26,0,0,1,3.83,5.16Z" transform="translate(-103.48 -52.5)"/><path class="cls-2" d="M156,67.85a24.09,24.09,0,0,1,7,5l13.05-4.75A37.3,37.3,0,0,0,108.6,92.69l13.05-4.75A24.18,24.18,0,0,1,156,67.85" transform="translate(-103.48 -52.5)"/><path class="cls-2" d="M115.88,96.61l-12.4,4.51a37.78,37.78,0,0,0,5.83,12.64l13-4.74a24.36,24.36,0,0,1-6.45-12.41" transform="translate(-103.48 -52.5)"/><path class="cls-2" d="M170,91.69a23.86,23.86,0,0,1-2.19,8.38,24.27,24.27,0,0,1-32.22,11.73,24,24,0,0,1-7.06-5l-13,4.74A37,37,0,0,0,130,123.65a37.37,37.37,0,0,0,49.6-18.05A36.92,36.92,0,0,0,183,87Z" transform="translate(-103.48 -52.5)"/><path class="cls-2" d="M173.17,75.76l-12.4,4.51a24.34,24.34,0,0,1,3,13.65l13-4.73a37.63,37.63,0,0,0-3.66-13.43" transform="translate(-103.48 -52.5)"/><path class="cls-3" d="M127,88.59a23.82,23.82,0,0,1,.05-2.62L114,90.72c0.07,0.84.17,1.67,0.3,2.49Z" transform="translate(-103.48 -52.5)"/><path class="cls-3" d="M182.86,68.1c-0.41-.67-0.84-1.33-1.29-2l-13,4.75a22,22,0,0,1,1.61,1.85Z" transform="translate(-103.48 -52.5)"/><path class="cls-1" d="M115.47,111.52a37.13,37.13,0,0,0,3.32,4L133,110.38a24,24,0,0,1-4.47-3.6ZM183,87l-13,4.73a23.86,23.86,0,0,1-1.1,5.6L183,92.12A36.94,36.94,0,0,0,183,87" transform="translate(-103.48 -52.5)"/><path class="cls-4" d="M209,73.91l-2.74-5.66h-1.88v5.66h-4.56V57.11h7.51a11.15,11.15,0,0,1,2.68.3,5.7,5.7,0,0,1,2.08.95A4.23,4.23,0,0,1,213.41,60a6.17,6.17,0,0,1,.47,2.53,5.39,5.39,0,0,1-.82,3.1,5.16,5.16,0,0,1-2.21,1.82l3.37,6.41H209Zm-0.22-12.5a2.09,2.09,0,0,0-1.58-.5h-2.82v3.67h2.75a2.28,2.28,0,0,0,1.64-.48,1.88,1.88,0,0,0,.48-1.39A1.82,1.82,0,0,0,208.78,61.41Z" transform="translate(-103.48 -52.5)"/><path class="cls-4" d="M217.72,73.91V57.11h12.86V61h-8.26v2.26h5v3.84h-5V70h8.42v3.91h-13Z" transform="translate(-103.48 -52.5)"/><path class="cls-4" d="M248.39,69.41A6.06,6.06,0,0,1,246.66,72a7,7,0,0,1-2.84,1.44,15.55,15.55,0,0,1-3.92.44h-5.45V57.11h5.88a14.55,14.55,0,0,1,3.58.41,6.52,6.52,0,0,1,2.72,1.38,6.35,6.35,0,0,1,1.73,2.56,11.07,11.07,0,0,1,.61,4A12,12,0,0,1,248.39,69.41ZM244,63.49a3.23,3.23,0,0,0-.66-1.37,2.69,2.69,0,0,0-1.2-.78,5.74,5.74,0,0,0-1.82-.25h-1.15v8.83h1A6.54,6.54,0,0,0,242,69.7a2.8,2.8,0,0,0,1.26-.74,3,3,0,0,0,.71-1.37,8.68,8.68,0,0,0,.22-2.1A8.54,8.54,0,0,0,244,63.49Z" transform="translate(-103.48 -52.5)"/><path class="cls-4" d="M271.12,73.91V67.29h-5.23v6.62h-4.75V57.11h4.75v6.12h5.23V57.11h4.75v16.8h-4.75Z" transform="translate(-103.48 -52.5)"/><path class="cls-4" d="M290.84,73.91l-0.91-3h-5l-0.91,3h-5l6.1-16.8h4.7l6.1,16.8h-5Zm-2.35-7.75q-0.22-.82-0.38-1.42l-0.3-1.08q-0.13-.48-0.23-0.88T287.41,62c0,0.29-.1.57-0.17,0.84s-0.14.57-.23,0.89l-0.3,1.08-0.38,1.39L286,67.26h2.78Z" transform="translate(-103.48 -52.5)"/><path class="cls-4" d="M305.39,61.17V73.91h-4.66V61.17H296V57.11h14.06v4.06h-4.7Z" transform="translate(-103.48 -52.5)"/><path class="cls-4" d="M316.33,60a2.08,2.08,0,0,1-1.14,1.14,2.31,2.31,0,0,1-1.72,0A2.08,2.08,0,0,1,312.33,60a2.31,2.31,0,0,1,0-1.72,2.08,2.08,0,0,1,1.14-1.14,2.31,2.31,0,0,1,1.72,0,2.08,2.08,0,0,1,1.14,1.14A2.31,2.31,0,0,1,316.33,60ZM316,58.44a1.78,1.78,0,0,0-.38-0.58,1.75,1.75,0,0,0-.58-0.38,1.94,1.94,0,0,0-1.44,0,1.75,1.75,0,0,0-1,1,1.94,1.94,0,0,0,0,1.44,1.77,1.77,0,0,0,1,1,1.94,1.94,0,0,0,1.44,0,1.76,1.76,0,0,0,.58-0.38,1.78,1.78,0,0,0,.38-0.58A1.94,1.94,0,0,0,316,58.44Zm-0.83.66a0.7,0.7,0,0,1-.37.24l0.49,1h-0.47l-0.46-.91h-0.45V60.3h-0.4V57.94h1a1,1,0,0,1,.3,0,0.69,0.69,0,0,1,.25.13,0.62,0.62,0,0,1,.17.22,0.76,0.76,0,0,1,.06.32A0.71,0.71,0,0,1,315.18,59.11Zm-0.37-.7a0.43,0.43,0,0,0-.27-0.08h-0.62V59h0.62a0.44,0.44,0,0,0,.27-0.08A0.35,0.35,0,0,0,314.8,58.41Z" transform="translate(-103.48 -52.5)"/><path class="cls-4" d="M218.9,96.51a12.55,12.55,0,0,1-2.14,4.12,9.91,9.91,0,0,1-3.33,2.7,10,10,0,0,1-8.55,0,9.58,9.58,0,0,1-3.29-2.68,12.49,12.49,0,0,1-2.11-4.1,17.52,17.52,0,0,1-.74-5.22,17.32,17.32,0,0,1,.76-5.24A12.75,12.75,0,0,1,201.61,82a9.73,9.73,0,0,1,3.31-2.7,10,10,0,0,1,8.55,0,9.6,9.6,0,0,1,3.29,2.68,12.79,12.79,0,0,1,2.12,4.1,17.15,17.15,0,0,1,.76,5.22A17.32,17.32,0,0,1,218.9,96.51ZM216.25,87a10.7,10.7,0,0,0-1.64-3.31,7.34,7.34,0,0,0-2.45-2.12,6.48,6.48,0,0,0-3.06-.74,6.3,6.3,0,0,0-3,.74,7.19,7.19,0,0,0-2.39,2.09A10.39,10.39,0,0,0,202.12,87a15,15,0,0,0-.58,4.3,14.57,14.57,0,0,0,.59,4.3,10.92,10.92,0,0,0,1.62,3.31,7.14,7.14,0,0,0,2.43,2.12,6.47,6.47,0,0,0,3.06.74,6.4,6.4,0,0,0,3-.74,7.13,7.13,0,0,0,2.41-2.09,10.43,10.43,0,0,0,1.58-3.28,15,15,0,0,0,.58-4.3A14.56,14.56,0,0,0,216.25,87Z" transform="translate(-103.48 -52.5)"/><path class="cls-4" d="M243.1,89.56A6.85,6.85,0,0,1,241.36,92a7.38,7.38,0,0,1-2.7,1.49,11.32,11.32,0,0,1-3.46.5h-6.12v9.9h-2.81V78.71h9.43a10.77,10.77,0,0,1,3.19.45,7,7,0,0,1,2.54,1.39,6.44,6.44,0,0,1,1.69,2.36A9.24,9.24,0,0,1,243.1,89.56Zm-3.55-7a5.5,5.5,0,0,0-4-1.31h-6.52V91.45h6.16q5.69,0,5.69-5.11A5,5,0,0,0,239.56,82.58Z" transform="translate(-103.48 -52.5)"/><path class="cls-4" d="M249.6,103.91V78.71h15.23v2.56H252.41v7.92h7.2v2.56h-7.2v9.61h13v2.56H249.6Z" transform="translate(-103.48 -52.5)"/><path class="cls-4" d="M287.33,103.91l-11-17.24q-0.22-.32-0.47-0.77l-0.5-.9-0.49-.85a5.87,5.87,0,0,1-.34-0.65v20.41h-2.74V78.71h2.74l10.91,17.57q0.22,0.32.47,0.77l0.5,0.9,0.49,0.85a6.22,6.22,0,0,1,.34.65V78.71H290v25.2h-2.66Z" transform="translate(-103.48 -52.5)"/><path class="cls-4" d="M312.58,100.06a6.13,6.13,0,0,1-1.64,2.23,8,8,0,0,1-2.63,1.48,10.67,10.67,0,0,1-3.53.54,11.39,11.39,0,0,1-4.77-1,12.39,12.39,0,0,1-3.69-2.5l1.87-2.09a12.77,12.77,0,0,0,3.1,2.2,7.92,7.92,0,0,0,3.6.83,6.25,6.25,0,0,0,4-1.15,3.82,3.82,0,0,0,1.46-3.17,4.24,4.24,0,0,0-.29-1.58,3.53,3.53,0,0,0-1-1.33,9.4,9.4,0,0,0-1.85-1.21,23.74,23.74,0,0,0-2.88-1.21,25,25,0,0,1-3.44-1.46,9.3,9.3,0,0,1-2.23-1.58,5.12,5.12,0,0,1-1.22-1.89,7.07,7.07,0,0,1-.38-2.41,6.1,6.1,0,0,1,.58-2.7,6,6,0,0,1,1.6-2,7,7,0,0,1,2.48-1.28,11.31,11.31,0,0,1,3.22-.43,11.48,11.48,0,0,1,4.3.72,13.57,13.57,0,0,1,3.37,2l-1.8,2.2A11.11,11.11,0,0,0,308,81.46a8.33,8.33,0,0,0-3.29-.59,7.23,7.23,0,0,0-2.23.31A4.51,4.51,0,0,0,301,82a3,3,0,0,0-.86,1.17,3.74,3.74,0,0,0-.27,1.42,4.38,4.38,0,0,0,.22,1.42,3,3,0,0,0,.86,1.22,7.75,7.75,0,0,0,1.82,1.17,30.15,30.15,0,0,0,3.08,1.26,26.48,26.48,0,0,1,3.49,1.51,8.74,8.74,0,0,1,2.25,1.66,5.34,5.34,0,0,1,1.21,2,7.84,7.84,0,0,1,.36,2.48A6.94,6.94,0,0,1,312.58,100.06Z" transform="translate(-103.48 -52.5)"/><path class="cls-4" d="M335.39,103.91V92H322.86v11.88h-2.81V78.71h2.81V89.47h12.53V78.71h2.81v25.2h-2.81Z" transform="translate(-103.48 -52.5)"/><path class="cls-4" d="M346.08,103.91V78.71h2.81v25.2h-2.81Z" transform="translate(-103.48 -52.5)"/><path class="cls-4" d="M359.58,81.27v8.35h6.91v2.56h-6.91v11.74h-2.81V78.71h14.8v2.56h-12Z" transform="translate(-103.48 -52.5)"/><path class="cls-4" d="M386.26,81.27v22.64h-2.81V81.27H376V78.71h17.64v2.56h-7.42Z" transform="translate(-103.48 -52.5)"/><path class="cls-4" d="M209.55,118.26a6.24,6.24,0,0,1-1.11,2.05,4.93,4.93,0,0,1-1.7,1.32,5.38,5.38,0,0,1-4.37,0,4.78,4.78,0,0,1-1.69-1.3,6.09,6.09,0,0,1-1.09-2,8.65,8.65,0,0,1-.39-2.67,8.48,8.48,0,0,1,.4-2.67,6.23,6.23,0,0,1,1.11-2.05,4.93,4.93,0,0,1,1.7-1.32,5,5,0,0,1,2.18-.47,5.15,5.15,0,0,1,2.2.46,4.78,4.78,0,0,1,1.69,1.3,6.09,6.09,0,0,1,1.09,2,8.65,8.65,0,0,1,.39,2.67A8.49,8.49,0,0,1,209.55,118.26Zm-1.79-4.58a4.52,4.52,0,0,0-.73-1.46,3.27,3.27,0,0,0-1.11-.93,3,3,0,0,0-1.4-.33,3,3,0,0,0-1.38.32,3.1,3.1,0,0,0-1.07.91,4.51,4.51,0,0,0-.7,1.46,6.88,6.88,0,0,0-.25,1.94,6.67,6.67,0,0,0,.26,1.94,4.62,4.62,0,0,0,.72,1.46,3.18,3.18,0,0,0,1.1.93,3,3,0,0,0,1.4.33,3,3,0,0,0,1.38-.32,3.18,3.18,0,0,0,1.08-.91,4.39,4.39,0,0,0,.71-1.46,6.91,6.91,0,0,0,.25-1.94A6.68,6.68,0,0,0,207.76,113.69Z" transform="translate(-103.48 -52.5)"/><path class="cls-4" d="M218.08,121.91v-5.33a3.05,3.05,0,0,0-.51-2,1.81,1.81,0,0,0-1.42-.57,1.73,1.73,0,0,0-1.43.63,2.79,2.79,0,0,0-.5,1.78v5.51h-1.87v-9.45h1.87v0.91a2.36,2.36,0,0,1,1-.82,3.3,3.3,0,0,1,1.38-.29,3,3,0,0,1,2.51,1.06,5,5,0,0,1,.85,3.17v5.42h-1.87Z" transform="translate(-103.48 -52.5)"/><path class="cls-4" d="M222.69,121.91V109.76l1.87-1v13.12h-1.87Z" transform="translate(-103.48 -52.5)"/><path class="cls-4" d="M229.24,110.88a1.14,1.14,0,0,1-.84.35,1.16,1.16,0,0,1-.85-0.35,1.14,1.14,0,0,1-.35-0.84,1.2,1.2,0,0,1,1.21-1.21,1.14,1.14,0,0,1,.84.35,1.16,1.16,0,0,1,.35.85A1.14,1.14,0,0,1,229.24,110.88Zm-1.77,11v-9.45h1.87v9.45h-1.87Z" transform="translate(-103.48 -52.5)"/><path class="cls-4" d="M237.88,121.91v-5.33a3.05,3.05,0,0,0-.51-2,1.81,1.81,0,0,0-1.42-.57,1.73,1.73,0,0,0-1.43.63,2.79,2.79,0,0,0-.5,1.78v5.51h-1.87v-9.45H234v0.91a2.36,2.36,0,0,1,1-.82,3.3,3.3,0,0,1,1.38-.29,3,3,0,0,1,2.51,1.06,5,5,0,0,1,.85,3.17v5.42h-1.87Z" transform="translate(-103.48 -52.5)"/><path class="cls-4" d="M250.05,117.47q0,0.23,0,.37h-6.25a3.88,3.88,0,0,0,.29,1.17,2.53,2.53,0,0,0,.54.8,2.12,2.12,0,0,0,.72.47,2.28,2.28,0,0,0,.83.15,2.91,2.91,0,0,0,1.09-.2,4,4,0,0,0,1-.56l1.1,1.19a4.66,4.66,0,0,1-1.4.92,4.79,4.79,0,0,1-1.85.32,3.92,3.92,0,0,1-1.57-.32,3.68,3.68,0,0,1-1.31-1,4.63,4.63,0,0,1-.88-1.55,6.25,6.25,0,0,1-.32-2.09,6.71,6.71,0,0,1,.31-2.12,4.46,4.46,0,0,1,.85-1.54,3.53,3.53,0,0,1,1.31-.95,4.27,4.27,0,0,1,1.68-.32,3.84,3.84,0,0,1,1.75.38,3.58,3.58,0,0,1,1.24,1,4.45,4.45,0,0,1,.74,1.51,6.68,6.68,0,0,1,.24,1.82C250.07,117.16,250.06,117.32,250.05,117.47Zm-2-2.08a2.18,2.18,0,0,0-.41-0.76,1.92,1.92,0,0,0-.67-0.51,2.31,2.31,0,0,0-1-.19,1.88,1.88,0,0,0-1.49.62,3.11,3.11,0,0,0-.67,1.75h4.39A4.12,4.12,0,0,0,248,115.39Z" transform="translate(-103.48 -52.5)"/><path class="cls-5" d="M127.08,86L114,90.72a37.91,37.91,0,0,0,1,6.18l12.4-4.51a24.31,24.31,0,0,1-.38-6.42" transform="translate(-103.48 -52.5)"/><path class="cls-5" d="M184.76,71.54a37.27,37.27,0,0,0-3.18-5.41l-13,4.75a24.26,24.26,0,0,1,3.83,5.16Z" transform="translate(-103.48 -52.5)"/><path class="cls-6" d="M156,67.85a24.09,24.09,0,0,1,7,5l13.05-4.75A37.3,37.3,0,0,0,108.6,92.69l13.05-4.75A24.18,24.18,0,0,1,156,67.85" transform="translate(-103.48 -52.5)"/><path class="cls-6" d="M115.88,96.61l-12.4,4.51a37.78,37.78,0,0,0,5.83,12.64l13-4.74a24.36,24.36,0,0,1-6.45-12.41" transform="translate(-103.48 -52.5)"/><path class="cls-6" d="M170,91.69a23.86,23.86,0,0,1-2.19,8.38,24.27,24.27,0,0,1-32.22,11.73,24,24,0,0,1-7.06-5l-13,4.74A37,37,0,0,0,130,123.65a37.37,37.37,0,0,0,49.6-18.05A36.92,36.92,0,0,0,183,87Z" transform="translate(-103.48 -52.5)"/><path class="cls-6" d="M173.17,75.76l-12.4,4.51a24.34,24.34,0,0,1,3,13.65l13-4.73a37.63,37.63,0,0,0-3.66-13.43" transform="translate(-103.48 -52.5)"/><path class="cls-7" d="M127,88.59a23.82,23.82,0,0,1,.05-2.62L114,90.72c0.07,0.84.17,1.67,0.3,2.49Z" transform="translate(-103.48 -52.5)"/><path class="cls-7" d="M182.86,68.1c-0.41-.67-0.84-1.33-1.29-2l-13,4.75a22,22,0,0,1,1.61,1.85Z" transform="translate(-103.48 -52.5)"/><path class="cls-5" d="M115.47,111.52a37.13,37.13,0,0,0,3.32,4L133,110.38a24,24,0,0,1-4.47-3.6ZM183,87l-13,4.73a23.86,23.86,0,0,1-1.1,5.6L183,92.12A36.94,36.94,0,0,0,183,87" transform="translate(-103.48 -52.5)"/></svg>